<svg xmlns="http://www.w3.org/2000/svg" width="33" height="33" fill="none"><path d="M16.697 15.404c.995 0 1.95.392 2.653 1.091a3.714 3.714 0 011.1 2.635l-.003 1.859c.258 4.564-3.282 6.84-9.845 6.84C4.062 27.825.445 25.582.445 21.055V19.13c0-.988.396-1.936 1.1-2.635a3.766 3.766 0 012.653-1.091h12.499zm0 2.484H4.198c-.332 0-.65.131-.884.364a1.238 1.238 0 00-.367.878v1.926c0 2.845 2.322 4.286 7.655 4.286 5.314 0 7.506-1.41 7.346-4.286V19.13c0-.33-.132-.645-.367-.878a1.255 1.255 0 00-.884-.364zm8.048 8.485l-1.286-.425-.205-.057a1.922 1.922 0 00-1.13.104c-.358.147-.662.4-.872.723l-1.168 1.704-.115.187a2.173 2.173 0 00.36 2.554l.776.772.2.182c.75.63 1.756.84 2.69.551 2.403-.745 4.615-2.956 6.631-6.633 2.02-3.685 2.732-6.808 2.14-9.377-.25-1.08-1.026-1.94-2.037-2.26l-1.018-.323-.193-.05a1.973 1.973 0 00-1.313.204c-.4.217-.712.567-.88.988l-.814 1.908-.078.212A2.16 2.16 0 0027 19.54l1.794 1.692-.063.433c-.15.864-.475 1.714-.965 2.556a8.206 8.206 0 01-2.152 2.44l-.868-.288z" fill="#fff"/><path d="M24.995 23.836l.017-.022-.05.012.033.01zm-.953-7.23c-.13.418-.198.85-.205 1.282h-2.294a4.964 4.964 0 00-1.539-2.484h4.526l-.348.81-.12.33-.02.062zM10.452.497c1.66 0 3.25.654 4.423 1.819a6.19 6.19 0 011.832 4.392 6.19 6.19 0 01-1.832 4.392 6.276 6.276 0 01-4.423 1.82A6.277 6.277 0 016.03 11.1a6.19 6.19 0 01-1.832-4.392A6.19 6.19 0 016.03 2.316a6.276 6.276 0 014.422-1.82zm0 2.484c-.995 0-1.95.393-2.653 1.092a3.714 3.714 0 00-1.1 2.635c0 .988.396 1.936 1.1 2.635a3.766 3.766 0 002.653 1.092c.996 0 1.95-.393 2.654-1.092a3.714 3.714 0 001.099-2.635 3.71 3.71 0 00-1.1-2.635 3.766 3.766 0 00-2.653-1.092zm12.509 0c1.327 0 2.6.524 3.538 1.456a4.952 4.952 0 011.466 3.513 4.952 4.952 0 01-1.466 3.514 5.021 5.021 0 01-3.538 1.455 5.02 5.02 0 01-3.538-1.455 4.952 4.952 0 01-1.465-3.514c0-1.317.527-2.581 1.465-3.513a5.021 5.021 0 013.538-1.456zm0 2.485c-.663 0-1.3.262-1.769.728a2.476 2.476 0 000 3.513 2.51 2.51 0 003.538 0 2.476 2.476 0 000-3.513 2.51 2.51 0 00-1.769-.728z" fill="#fff"/></svg>