<svg xmlns="http://www.w3.org/2000/svg" width="33" height="33" fill="none"><path d="M16.24 15a3.75 3.75 0 013.75 3.75l-.002 1.87c.257 4.592-3.28 6.883-9.838 6.883C3.615 27.5 0 25.242 0 20.687V18.75A3.75 3.75 0 013.75 15h12.49zm0 2.5H3.75a1.25 1.25 0 00-1.25 1.25v1.938C2.5 23.55 4.82 25 10.15 25c5.31 0 7.5-1.418 7.34-4.313V18.75a1.25 1.25 0 00-1.25-1.25zm8.042 8.538l-1.285-.428-.204-.058a1.907 1.907 0 00-2 .833L19.625 28.1l-.115.188a2.2 2.2 0 00.36 2.57l.775.777.2.182a2.84 2.84 0 002.688.556c2.402-.75 4.612-2.975 6.627-6.675 2.018-3.708 2.73-6.85 2.137-9.436-.25-1.087-1.024-1.952-2.034-2.274l-1.018-.325-.193-.05a1.96 1.96 0 00-2.192 1.2l-.813 1.92-.077.212a2.188 2.188 0 00.565 2.218l1.793 1.702-.063.435c-.15.87-.475 1.725-.965 2.572a8.238 8.238 0 01-2.15 2.456l-.867-.29z" fill="#0AB8B6"/><path d="M24.532 23.485l.018-.023-.05.013.032.01zm-.952-7.275c-.13.42-.197.855-.205 1.29h-2.293a5 5 0 00-1.537-2.5h4.522l-.347.815-.12.333-.02.062zM10 0a6.25 6.25 0 110 12.5A6.25 6.25 0 0110 0zm0 2.5a3.75 3.75 0 100 7.5 3.75 3.75 0 000-7.5zm12.5 0a5 5 0 110 10 5 5 0 010-10zm0 2.5a2.5 2.5 0 100 5 2.5 2.5 0 000-5z" fill="#0AB8B6"/></svg>