<svg xmlns="http://www.w3.org/2000/svg" width="51" height="50" fill="none"><path d="M25.11 16.51c-1.7 0-3.363.5-4.777 1.439a8.554 8.554 0 00-3.168 3.832 8.486 8.486 0 00-.489 4.935 8.522 8.522 0 002.354 4.373 8.62 8.62 0 004.403 2.337c1.668.33 3.397.16 4.968-.486a8.587 8.587 0 003.86-3.145 8.498 8.498 0 001.45-4.745 8.52 8.52 0 00-2.522-6.036 8.64 8.64 0 00-6.079-2.505zm0 15.527a7.071 7.071 0 01-3.909-1.177 6.998 6.998 0 01-2.591-3.136 6.942 6.942 0 01-.4-4.037 6.973 6.973 0 011.925-3.578 7.051 7.051 0 013.603-1.913 7.081 7.081 0 014.065.398 7.026 7.026 0 013.158 2.574 6.953 6.953 0 011.186 3.882 6.97 6.97 0 01-2.063 4.938 7.069 7.069 0 01-4.974 2.05zm8.6-25.62h-17.2a10.21 10.21 0 00-7.182 2.959 10.07 10.07 0 00-2.98 7.133V33.59a10.07 10.07 0 002.98 7.134 10.21 10.21 0 007.183 2.96h17.2a10.21 10.21 0 007.182-2.96 10.07 10.07 0 002.98-7.134V16.51a10.07 10.07 0 00-2.98-7.134 10.21 10.21 0 00-7.183-2.96zm8.6 27.173a8.52 8.52 0 01-2.522 6.036 8.64 8.64 0 01-6.078 2.505h-17.2a8.64 8.64 0 01-6.077-2.505A8.52 8.52 0 017.91 33.59V16.51a8.52 8.52 0 012.522-6.037A8.64 8.64 0 0116.51 7.97h17.2a8.64 8.64 0 016.077 2.504 8.52 8.52 0 012.522 6.036v17.08zm-5.473-18.633c0 .307-.091.607-.263.862a1.573 1.573 0 01-2.406.235 1.549 1.549 0 01.237-2.388 1.572 1.572 0 011.974.193c.293.291.458.686.458 1.098z" fill="#F8F8F8"/></svg>