<svg xmlns="http://www.w3.org/2000/svg" width="41" height="41" fill="none"><path d="M31.715 5.242H9.2l-.306.009A5.436 5.436 0 005.26 6.928c-.95 1-1.48 2.322-1.48 3.697V26.36l.008.305a5.368 5.368 0 001.69 3.608 5.44 5.44 0 003.722 1.47h10.786a6.106 6.106 0 011.29-1.88l.608-.604H9.2l-.24-.01a2.93 2.93 0 01-1.907-.925 2.887 2.887 0 01-.771-1.964V14.143l13.593 7.106.161.07a1.258 1.258 0 001.004-.07l13.595-7.107v4.362a5.528 5.528 0 012.502.42v-8.299l-.009-.304a5.368 5.368 0 00-1.689-3.608 5.44 5.44 0 00-3.723-1.47zM9.2 7.727h22.516l.239.01c.73.06 1.41.39 1.907.924.497.536.773 1.237.773 1.964v.71l-14.177 7.41-14.176-7.408v-.712l.01-.238c.06-.725.393-1.401.931-1.894A2.93 2.93 0 019.2 7.727zm23.1 13.532l-9.845 9.775a4.441 4.441 0 00-1.178 2.066l-.764 3.033a1.789 1.789 0 00.478 1.71 1.816 1.816 0 001.722.473l3.052-.757a4.486 4.486 0 002.082-1.171l9.843-9.776a3.772 3.772 0 001.054-2.658 3.773 3.773 0 00-1.116-2.633 3.825 3.825 0 00-2.652-1.109A3.827 3.827 0 0032.3 21.26z" fill="#fff"/></svg>