<svg xmlns="http://www.w3.org/2000/svg" width="40" height="40" fill="none"><path fill-rule="evenodd" clip-rule="evenodd" d="M40 20c0 11.045-8.955 20-20 20S0 31.045 0 20 8.955 0 20 0s20 8.955 20 20zm-19.283-5.235c-1.945.808-5.834 2.483-11.664 5.023-.946.377-1.443.745-1.488 1.105-.077.61.687.85 1.723 1.175.142.045.289.09.439.14 1.021.332 2.395.72 3.108.735.648.014 1.372-.253 2.17-.8 5.447-3.678 8.258-5.536 8.435-5.576.125-.029.298-.065.415.04.117.103.105.3.093.353-.076.322-3.066 3.103-4.616 4.543a47.2 47.2 0 00-.895.84 20.42 20.42 0 01-.47.465c-.95.914-1.66 1.6.04 2.72.816.539 1.47.984 2.121 1.427.712.485 1.422.968 2.342 1.572.233.153.457.311.675.466.828.592 1.573 1.122 2.493 1.039.534-.05 1.087-.552 1.367-2.05.662-3.544 1.965-11.217 2.267-14.38a3.522 3.522 0 00-.034-.787.843.843 0 00-.286-.542c-.239-.195-.609-.236-.775-.233-.752.013-1.905.415-7.46 2.725z" fill="#0AB8B6"/></svg>