<svg xmlns="http://www.w3.org/2000/svg" width="40" height="40" fill="none"><path d="M18.997.006c-3.21.039-10.11.566-13.97 4.108-2.872 2.845-3.874 7.051-3.992 12.252C.938 21.55.82 31.281 10.201 33.931v4.037s-.059 1.614 1.009 1.946c1.315.416 2.064-.827 3.314-2.162l2.331-2.636c6.419.534 11.335-.696 11.901-.879 1.303-.416 8.639-1.353 9.838-11.087 1.23-10.052-.599-16.386-3.9-19.251h-.02c-.996-.918-5-3.835-13.945-3.868 0 0-.664-.045-1.732-.026v.001zm.11 2.827c.912-.007 1.466.032 1.466.032 7.57.02 11.184 2.299 12.037 3.066 2.78 2.383 4.212 8.093 3.164 16.485-.996 8.138-6.947 8.653-8.048 9.004-.468.15-4.799 1.218-10.253.866 0 0-4.063 4.903-5.333 6.165-.201.221-.436.286-.586.254-.215-.052-.28-.319-.268-.684l.039-6.698c-7.956-2.2-7.487-10.502-7.402-14.838.097-4.336.91-7.884 3.333-10.286 3.261-2.949 9.122-3.346 11.849-3.366h.003zm.6 4.335a.496.496 0 00-.5.494c0 .28.227.502.5.502a9.391 9.391 0 016.72 2.65c1.816 1.764 2.7 4.133 2.734 7.232 0 .274.221.502.502.502v-.02a.5.5 0 00.5-.495 10.767 10.767 0 00-3.02-7.937c-1.98-1.934-4.487-2.93-7.436-2.93v.002zM13.12 8.314a1.565 1.565 0 00-1.023.201h-.026a7.845 7.845 0 00-1.908 1.569c-.456.527-.703 1.061-.768 1.575-.039.306-.013.612.079.905l.032.02a22.535 22.535 0 002.005 4.33 25.472 25.472 0 003.867 5.286l.045.065.072.052.045.053.052.045a25.836 25.836 0 005.3 3.886c2.2 1.198 3.535 1.764 4.337 1.999v.012c.234.072.448.104.663.104a3.064 3.064 0 001.837-.787 7.58 7.58 0 001.55-1.914v-.012c.383-.723.253-1.407-.3-1.87a23.094 23.094 0 00-3.582-2.57c-.852-.463-1.719-.183-2.07.286l-.748.944c-.384.468-1.082.403-1.082.403l-.02.013c-5.201-1.329-6.588-6.595-6.588-6.595s-.066-.716.416-1.082l.937-.755c.449-.364.762-1.23.28-2.083a22.495 22.495 0 00-2.565-3.582 1.425 1.425 0 00-.84-.5l.003.002zm7.454 1.485c-.664 0-.664 1.002.006 1.002a6.283 6.283 0 014.413 1.914 5.827 5.827 0 011.498 4.284.504.504 0 00.501.495l.02.026a.505.505 0 00.502-.501c.044-1.986-.573-3.653-1.784-4.988-1.218-1.335-2.916-2.084-5.085-2.232h-.071zm.82 2.695c-.683-.02-.71 1.002-.032 1.022 1.648.085 2.448.918 2.553 2.63a.497.497 0 00.495.489h.02a.504.504 0 00.481-.534c-.117-2.232-1.335-3.49-3.496-3.606h-.02v-.001z" fill="#0AB8B6"/></svg>