<?xml version="1.0" encoding="UTF-8"?> <svg xmlns="http://www.w3.org/2000/svg" width="33" height="33" viewBox="0 0 33 33" fill="none"> <path d="M16.24 15C17.2346 15 18.1884 15.3951 18.8916 16.0983C19.5949 16.8016 19.99 17.7554 19.99 18.75L19.9875 20.62C20.245 25.2125 16.7075 27.5025 10.15 27.5025C3.615 27.5 0 25.2425 0 20.6875V18.75C0 17.7554 0.395088 16.8016 1.09835 16.0983C1.80161 15.3951 2.75544 15 3.75 15H16.24ZM16.24 17.5H3.75C3.41848 17.5 3.10054 17.6317 2.86612 17.8661C2.6317 18.1005 2.5 18.4185 2.5 18.75V20.6875C2.5 23.55 4.82 25 10.15 25C15.46 25 17.65 23.5825 17.49 20.6875V18.75C17.49 18.4185 17.3583 18.1005 17.1239 17.8661C16.8895 17.6317 16.5715 17.5 16.24 17.5Z" fill="#0AB8B6"></path> <path d="M24.2825 26.0375L22.9975 25.61L22.7925 25.5525C22.414 25.472 22.0201 25.5086 21.6629 25.6573C21.3057 25.806 21.0021 26.0598 20.7925 26.385L19.625 28.1L19.51 28.2875C19.2898 28.6987 19.206 29.1693 19.2707 29.6312C19.3354 30.0932 19.5453 30.5226 19.87 30.8575L20.645 31.635L20.845 31.8175C21.595 32.4525 22.6 32.6625 23.5325 32.3725C25.935 31.6225 28.145 29.3975 30.16 25.6975C32.1775 21.99 32.89 18.8475 32.2975 16.2625C32.0475 15.175 31.2725 14.31 30.2625 13.9875L29.245 13.6625L29.0525 13.6125C28.6045 13.5261 28.1404 13.5986 27.7402 13.8177C27.3399 14.0367 27.0287 14.3886 26.86 14.8125L26.0475 16.7325L25.97 16.945C25.8503 17.3307 25.8397 17.7421 25.9394 18.1335C26.0391 18.5249 26.2453 18.8811 26.535 19.1625L28.3275 20.865L28.265 21.3C28.115 22.17 27.79 23.025 27.3 23.8725C26.725 24.8575 26.01 25.6775 25.15 26.3275L24.2825 26.0375Z" fill="#0AB8B6"></path> <path d="M24.5325 23.485L24.55 23.4625L24.5 23.475L24.5325 23.485Z" fill="#0AB8B6"></path> <path d="M23.58 16.21C23.45 16.63 23.3825 17.065 23.375 17.5H21.0825C20.8316 16.5316 20.2961 15.6608 19.545 15H24.0675L23.72 15.815L23.6 16.1475L23.58 16.21Z" fill="#0AB8B6"></path> <path d="M10 0C11.6576 0 13.2473 0.65848 14.4194 1.83058C15.5915 3.00269 16.25 4.5924 16.25 6.25C16.25 7.9076 15.5915 9.49732 14.4194 10.6694C13.2473 11.8415 11.6576 12.5 10 12.5C8.3424 12.5 6.75269 11.8415 5.58058 10.6694C4.40848 9.49732 3.75 7.9076 3.75 6.25C3.75 4.5924 4.40848 3.00269 5.58058 1.83058C6.75269 0.65848 8.3424 0 10 0ZM10 2.5C9.00544 2.5 8.05161 2.89509 7.34835 3.59835C6.64509 4.30161 6.25 5.25544 6.25 6.25C6.25 7.24456 6.64509 8.19839 7.34835 8.90165C8.05161 9.60491 9.00544 10 10 10C10.9946 10 11.9484 9.60491 12.6517 8.90165C13.3549 8.19839 13.75 7.24456 13.75 6.25C13.75 5.25544 13.3549 4.30161 12.6517 3.59835C11.9484 2.89509 10.9946 2.5 10 2.5Z" fill="#0AB8B6"></path> <path d="M22.5 2.5C23.8261 2.5 25.0979 3.02678 26.0355 3.96447C26.9732 4.90215 27.5 6.17392 27.5 7.5C27.5 8.82608 26.9732 10.0979 26.0355 11.0355C25.0979 11.9732 23.8261 12.5 22.5 12.5C21.1739 12.5 19.9021 11.9732 18.9645 11.0355C18.0268 10.0979 17.5 8.82608 17.5 7.5C17.5 6.17392 18.0268 4.90215 18.9645 3.96447C19.9021 3.02678 21.1739 2.5 22.5 2.5ZM22.5 5C21.837 5 21.2011 5.26339 20.7322 5.73223C20.2634 6.20107 20 6.83696 20 7.5C20 8.16304 20.2634 8.79893 20.7322 9.26777C21.2011 9.73661 21.837 10 22.5 10C23.163 10 23.7989 9.73661 24.2678 9.26777C24.7366 8.79893 25 8.16304 25 7.5C25 6.83696 24.7366 6.20107 24.2678 5.73223C23.7989 5.26339 23.163 5 22.5 5Z" fill="#0AB8B6"></path> </svg> 