<?xml version="1.0" encoding="UTF-8"?> <svg xmlns="http://www.w3.org/2000/svg" width="40" height="40" viewBox="0 0 40 40" fill="none"> <path d="M2.25033 36.8875L9.72116 29.4167H33.5003C34.6054 29.4167 35.6652 28.9777 36.4466 28.1963C37.228 27.4149 37.667 26.3551 37.667 25.25V6.5C37.667 5.39493 37.228 4.33512 36.4466 3.55372C35.6652 2.77232 34.6054 2.33333 33.5003 2.33333H6.41699C5.31192 2.33333 4.25212 2.77232 3.47071 3.55372C2.68931 4.33512 2.25033 5.39493 2.25033 6.5V36.8875ZM2.25033 39.8333H0.166992V6.5C0.166992 4.8424 0.825473 3.25269 1.99757 2.08058C3.16968 0.90848 4.75939 0.25 6.41699 0.25H33.5003C35.1579 0.25 36.7476 0.90848 37.9197 2.08058C39.0918 3.25269 39.7503 4.8424 39.7503 6.5V25.25C39.7503 26.9076 39.0918 28.4973 37.9197 29.6694C36.7476 30.8415 35.1579 31.5 33.5003 31.5H10.5837L2.25033 39.8333ZM8.50033 8.58333H31.417V10.6667H8.50033V8.58333ZM8.50033 14.8333H31.417V16.9167H8.50033V14.8333ZM8.50033 21.0833H25.167V23.1667H8.50033V21.0833Z" fill="white"></path> </svg> 