<?xml version="1.0" encoding="UTF-8"?> <svg xmlns="http://www.w3.org/2000/svg" width="33" height="33" viewBox="0 0 33 33" fill="none"> <path d="M16.6967 15.4037C17.692 15.4037 18.6465 15.7963 19.3502 16.4952C20.054 17.1941 20.4493 18.142 20.4493 19.1304L20.4468 20.9888C20.7045 25.5528 17.1645 27.8285 10.6025 27.8285C4.06295 27.826 0.445435 25.5826 0.445435 21.0559V19.1304C0.445435 18.142 0.840797 17.1941 1.54455 16.4952C2.2483 15.7963 3.20279 15.4037 4.19804 15.4037H16.6967ZM16.6967 17.8882H4.19804C3.86629 17.8882 3.54813 18.019 3.31354 18.252C3.07896 18.485 2.94717 18.8009 2.94717 19.1304V21.0559C2.94717 23.9006 5.26878 25.3416 10.6025 25.3416C15.9162 25.3416 18.1077 23.9329 17.9476 21.0559V19.1304C17.9476 18.8009 17.8158 18.485 17.5812 18.252C17.3466 18.019 17.0285 17.8882 16.6967 17.8882Z" fill="white"></path> <path d="M24.7449 26.3726L23.459 25.9478L23.2538 25.8906C22.8751 25.8107 22.4809 25.847 22.1234 25.9947C21.7659 26.1425 21.4622 26.3947 21.2524 26.7179L20.0841 28.4223L19.9691 28.6086C19.7487 29.0173 19.6648 29.4849 19.7296 29.944C19.7944 30.4031 20.0044 30.8299 20.3293 31.1627L21.1048 31.9353L21.305 32.1167C22.0555 32.7478 23.0612 32.9565 23.9944 32.6683C26.3985 31.9229 28.6101 29.7117 30.6265 26.0347C32.6454 22.3502 33.3584 19.2273 32.7654 16.6583C32.5153 15.5776 31.7397 14.7179 30.729 14.3974L29.7108 14.0745L29.5182 14.0248C29.0699 13.9389 28.6054 14.011 28.2049 14.2287C27.8044 14.4464 27.4929 14.796 27.3242 15.2173L26.5111 17.1254L26.4335 17.3366C26.3137 17.7199 26.3031 18.1287 26.4029 18.5177C26.5027 18.9067 26.709 19.2606 26.9989 19.5403L28.7927 21.2322L28.7301 21.6645C28.58 22.5291 28.2548 23.3788 27.7645 24.2211C27.1891 25.1999 26.4736 26.0148 25.613 26.6608L24.7449 26.3726Z" fill="white"></path> <path d="M24.995 23.836L25.0125 23.8135L24.9625 23.826L24.995 23.836Z" fill="white"></path> <path d="M24.0418 16.6063C23.9117 17.0237 23.8442 17.456 23.8367 17.8883H21.5426C21.2915 16.9259 20.7556 16.0605 20.004 15.4038H24.5297L24.1819 16.2137L24.0618 16.5442L24.0418 16.6063Z" fill="white"></path> <path d="M10.4524 0.496826C12.1112 0.496826 13.702 1.15122 14.8749 2.31604C16.0478 3.48086 16.7067 5.0607 16.7067 6.70801C16.7067 8.35531 16.0478 9.93515 14.8749 11.1C13.702 12.2648 12.1112 12.9192 10.4524 12.9192C8.79365 12.9192 7.20283 12.2648 6.02991 11.1C4.857 9.93515 4.19806 8.35531 4.19806 6.70801C4.19806 5.0607 4.857 3.48086 6.02991 2.31604C7.20283 1.15122 8.79365 0.496826 10.4524 0.496826ZM10.4524 2.9813C9.45715 2.9813 8.50266 3.37393 7.79891 4.07283C7.09516 4.77172 6.6998 5.71962 6.6998 6.70801C6.6998 7.69639 7.09516 8.64429 7.79891 9.34319C8.50266 10.0421 9.45715 10.4347 10.4524 10.4347C11.4477 10.4347 12.4021 10.0421 13.1059 9.34319C13.8096 8.64429 14.205 7.69639 14.205 6.70801C14.205 5.71962 13.8096 4.77172 13.1059 4.07283C12.4021 3.37393 11.4477 2.9813 10.4524 2.9813Z" fill="white"></path> <path d="M22.9611 2.98145C24.2881 2.98145 25.5608 3.50496 26.4991 4.43682C27.4374 5.36867 27.9646 6.63254 27.9646 7.95039C27.9646 9.26824 27.4374 10.5321 26.4991 11.464C25.5608 12.3958 24.2881 12.9193 22.9611 12.9193C21.6341 12.9193 20.3615 12.3958 19.4231 11.464C18.4848 10.5321 17.9576 9.26824 17.9576 7.95039C17.9576 6.63254 18.4848 5.36867 19.4231 4.43682C20.3615 3.50496 21.6341 2.98145 22.9611 2.98145ZM22.9611 5.46592C22.2976 5.46592 21.6613 5.72767 21.1921 6.1936C20.723 6.65953 20.4594 7.29147 20.4594 7.95039C20.4594 8.60931 20.723 9.24125 21.1921 9.70718C21.6613 10.1731 22.2976 10.4349 22.9611 10.4349C23.6246 10.4349 24.2609 10.1731 24.7301 9.70718C25.1993 9.24125 25.4629 8.60931 25.4629 7.95039C25.4629 7.29147 25.1993 6.65953 24.7301 6.1936C24.2609 5.72767 23.6246 5.46592 22.9611 5.46592Z" fill="white"></path> </svg> 