<?xml version="1.0" encoding="UTF-8"?> <svg xmlns="http://www.w3.org/2000/svg" width="51" height="50" viewBox="0 0 51 50" fill="none"> <path d="M25.1105 16.5094C23.4096 16.5094 21.747 17.0103 20.3328 17.9487C18.9185 18.8872 17.8163 20.221 17.1654 21.7815C16.5145 23.3421 16.3442 25.0593 16.676 26.7159C17.0078 28.3726 17.8269 29.8944 19.0296 31.0888C20.2323 32.2831 21.7646 33.0965 23.4328 33.4261C25.101 33.7556 26.8301 33.5865 28.4015 32.9401C29.9729 32.2937 31.316 31.199 32.2609 29.7946C33.2059 28.3901 33.7102 26.7389 33.7102 25.0498C33.7076 22.7855 32.8008 20.6148 31.1886 19.0137C29.5764 17.4126 27.3905 16.512 25.1105 16.5094ZM25.1105 32.0374C23.7189 32.0374 22.3585 31.6276 21.2014 30.8598C20.0443 30.092 19.1425 29.0006 18.61 27.7238C18.0774 26.447 17.9381 25.042 18.2096 23.6866C18.4811 22.3311 19.1512 21.0861 20.1352 20.1088C21.1192 19.1316 22.3729 18.4661 23.7378 18.1965C25.1027 17.9269 26.5174 18.0652 27.8031 18.5941C29.0888 19.123 30.1877 20.0186 30.9608 21.1677C31.734 22.3168 32.1466 23.6678 32.1466 25.0498C32.1446 26.9024 31.4026 28.6785 30.0835 29.9885C28.7644 31.2985 26.976 32.0353 25.1105 32.0374ZM33.7102 6.41626H16.5108C13.8162 6.41929 11.2329 7.48365 9.32761 9.37583C7.42228 11.268 6.35053 13.8335 6.34747 16.5094V33.5902C6.35053 36.2661 7.42228 38.8316 9.32761 40.7238C11.2329 42.6159 13.8162 43.6803 16.5108 43.6833H33.7102C36.4048 43.6803 38.9881 42.6159 40.8934 40.7238C42.7987 38.8316 43.8705 36.2661 43.8735 33.5902V16.5094C43.8705 13.8335 42.7987 11.268 40.8934 9.37583C38.9881 7.48365 36.4048 6.41929 33.7102 6.41626ZM42.3099 33.5902C42.3074 35.8544 41.4005 38.0252 39.7883 39.6263C38.1761 41.2274 35.9902 42.128 33.7102 42.1305H16.5108C14.2308 42.128 12.0449 41.2274 10.4327 39.6263C8.82052 38.0252 7.91365 35.8544 7.91106 33.5902V16.5094C7.91365 14.2452 8.82052 12.0744 10.4327 10.4733C12.0449 8.87223 14.2308 7.97162 16.5108 7.96905H33.7102C35.9902 7.97162 38.1761 8.87223 39.7883 10.4733C41.4005 12.0744 42.3074 14.2452 42.3099 16.5094V33.5902ZM36.8374 14.9566C36.8374 15.2637 36.7457 15.564 36.5739 15.8193C36.4021 16.0747 36.1579 16.2737 35.8722 16.3912C35.5865 16.5088 35.2721 16.5395 34.9688 16.4796C34.6655 16.4197 34.3869 16.2718 34.1682 16.0546C33.9495 15.8375 33.8006 15.5608 33.7403 15.2596C33.6799 14.9584 33.7109 14.6461 33.8292 14.3624C33.9476 14.0787 34.148 13.8362 34.4051 13.6655C34.6623 13.4949 34.9646 13.4038 35.2738 13.4038C35.6883 13.4044 36.0857 13.5681 36.3789 13.8592C36.672 14.1503 36.8369 14.545 36.8374 14.9566Z" fill="#F8F8F8"></path> </svg> 