<?xml version="1.0" encoding="UTF-8"?> <svg xmlns="http://www.w3.org/2000/svg" width="41" height="41" viewBox="0 0 41 41" fill="none"> <path d="M31.7151 5.24231H9.19944L8.89256 5.25059C7.51025 5.32844 6.21034 5.92863 5.25949 6.92806C4.30863 7.92748 3.77892 9.25036 3.77901 10.6253V26.3603L3.78735 26.6651C3.86573 28.0378 4.4701 29.3288 5.47647 30.2731C6.48284 31.2174 7.81491 31.7434 9.19944 31.7433H19.9853C20.2921 31.0444 20.7274 30.4067 21.2745 29.8634L21.8832 29.2589H9.19944L8.95927 29.2489C8.22926 29.1891 7.54861 28.8588 7.05241 28.3237C6.55622 27.7886 6.28077 27.0878 6.28074 26.3603V14.1433L19.8735 21.2489L20.0353 21.3185C20.1984 21.3766 20.3718 21.4004 20.5447 21.3884C20.7175 21.3765 20.8859 21.3289 21.0393 21.2489L34.6338 14.1417V18.5044C35.4892 18.4483 36.3459 18.5919 37.1355 18.9235V10.6253L37.1272 10.3206C37.0488 8.94781 36.4444 7.65687 35.438 6.71257C34.4317 5.76828 33.0996 5.24222 31.7151 5.24231ZM9.19944 7.72678H31.7151L31.9536 7.73672C32.6839 7.79618 33.3649 8.12628 33.8615 8.66143C34.358 9.19658 34.6337 9.89763 34.6338 10.6253V11.3342L20.4573 18.7446L6.28074 11.3375V10.6253L6.29075 10.3868C6.35102 9.66185 6.68358 8.98589 7.22241 8.49312C7.76124 8.00036 8.46695 7.72681 9.19944 7.72678ZM32.2988 21.2589L22.4536 31.0344C21.88 31.6043 21.4731 32.3182 21.2762 33.0999L20.5123 36.1326C20.4363 36.4343 20.4404 36.7505 20.524 37.0502C20.6077 37.3499 20.7681 37.623 20.9896 37.8429C21.2112 38.0627 21.4863 38.2218 21.7882 38.3046C22.09 38.3875 22.4084 38.3913 22.7122 38.3156L25.7643 37.5587C26.5522 37.363 27.2717 36.9582 27.8457 36.3877L37.6892 26.6121C38.3765 25.8967 38.7548 24.9426 38.7431 23.9539C38.7314 22.9652 38.3307 22.0202 37.6266 21.321C36.9226 20.6218 35.9711 20.2239 34.9755 20.2123C33.9799 20.2007 33.0192 20.5763 32.2988 21.2589Z" fill="white"></path> </svg> 