<?xml version="1.0" encoding="UTF-8"?> <svg xmlns="http://www.w3.org/2000/svg" width="40" height="40" viewBox="0 0 40 40" fill="none"> <path d="M18.9975 0.0062477C15.7875 0.0449977 8.88626 0.572498 5.02626 4.11375C2.15501 6.95875 1.15251 11.165 1.03501 16.3662C0.937511 21.5487 0.820011 31.2812 10.2013 33.9312V37.9675C10.2013 37.9675 10.1425 39.5825 11.21 39.9137C12.525 40.33 13.2738 39.0875 14.5238 37.7525L16.855 35.1162C23.2738 35.65 28.19 34.42 28.7563 34.2375C30.0588 33.8212 37.395 32.8837 38.5938 23.15C39.8238 13.0975 37.995 6.76375 34.6938 3.89875H34.6738C33.6775 2.98125 29.6738 0.0637477 20.7288 0.0312477C20.7288 0.0312477 20.065 -0.0137523 18.9975 0.0049977V0.0062477ZM19.1075 2.8325C20.0188 2.82625 20.5725 2.865 20.5725 2.865C28.1438 2.885 31.7575 5.16375 32.61 5.93125C35.39 8.31375 36.8225 14.0237 35.7738 22.4162C34.7775 30.5537 28.8275 31.0687 27.7263 31.42C27.2575 31.57 22.9275 32.6375 17.4725 32.2862C17.4725 32.2862 13.41 37.1887 12.14 38.4512C11.9388 38.6725 11.7038 38.7375 11.5538 38.705C11.3388 38.6525 11.2738 38.3862 11.2863 38.0212L11.325 31.3225C3.36876 29.1225 3.83751 20.8212 3.92251 16.485C4.02001 12.1487 4.83376 8.60125 7.25626 6.19875C10.5175 3.25 16.3775 2.8525 19.105 2.8325H19.1075ZM19.7075 7.1675C19.642 7.16684 19.5771 7.17914 19.5164 7.20371C19.4557 7.22827 19.4004 7.26461 19.3538 7.31063C19.3072 7.35664 19.2702 7.41142 19.2449 7.47181C19.2195 7.5322 19.2064 7.59701 19.2063 7.6625C19.2063 7.9425 19.4338 8.16375 19.7075 8.16375C20.9469 8.14018 22.1787 8.36221 23.3318 8.81703C24.485 9.27185 25.5367 9.95047 26.4263 10.8137C28.2425 12.5775 29.1275 14.9475 29.1613 18.0462C29.1613 18.32 29.3825 18.5475 29.6625 18.5475V18.5275C29.7945 18.5278 29.9212 18.476 30.0151 18.3833C30.109 18.2905 30.1624 18.1645 30.1638 18.0325C30.2245 16.5739 29.9879 15.1183 29.4685 13.754C28.9492 12.3896 28.1578 11.1452 27.1425 10.0962C25.1638 8.1625 22.6563 7.16625 19.7075 7.16625V7.1675ZM13.1188 8.31375C12.7649 8.26205 12.4041 8.33307 12.0963 8.515H12.07C11.3553 8.93392 10.7115 9.4634 10.1625 10.0837C9.70626 10.6112 9.45876 11.145 9.39376 11.6587C9.35501 11.965 9.38126 12.2712 9.47251 12.5637L9.50501 12.5837C10.0188 14.0937 10.69 15.5462 11.51 16.9137C12.5663 18.8349 13.8662 20.6117 15.3775 22.2L15.4225 22.265L15.4938 22.3175L15.5388 22.37L15.5913 22.415C17.1853 23.9307 18.9664 25.2367 20.8913 26.3012C23.0913 27.4987 24.4263 28.065 25.2275 28.3V28.3125C25.4625 28.3837 25.6763 28.4162 25.8913 28.4162C26.5741 28.3662 27.2206 28.089 27.7275 27.6287C28.345 27.0796 28.8686 26.4331 29.2775 25.715V25.7025C29.6613 24.98 29.5313 24.2962 28.9775 23.8337C27.8685 22.8644 26.6693 22.0034 25.3963 21.2625C24.5438 20.8 23.6775 21.08 23.3263 21.5487L22.5775 22.4925C22.1938 22.9612 21.4963 22.8962 21.4963 22.8962L21.4763 22.9087C16.275 21.58 14.8875 16.3137 14.8875 16.3137C14.8875 16.3137 14.8225 15.5975 15.3038 15.2325L16.2413 14.4775C16.69 14.1125 17.0025 13.2475 16.5213 12.3937C15.7855 11.1189 14.9264 9.91944 13.9563 8.8125C13.7442 8.55154 13.4466 8.37398 13.1163 8.31125L13.1188 8.31375ZM20.5725 9.79875C19.9088 9.79875 19.9088 10.8012 20.5788 10.8012C21.4041 10.8146 22.2187 10.9905 22.9761 11.3189C23.7334 11.6473 24.4186 12.1217 24.9925 12.715C25.516 13.2925 25.9183 13.9692 26.1756 14.705C26.4328 15.4409 26.5397 16.2208 26.49 16.9987C26.4923 17.1304 26.546 17.2559 26.6397 17.3484C26.7334 17.441 26.8596 17.4931 26.9913 17.4937L27.0113 17.52C27.1439 17.519 27.2708 17.4659 27.3646 17.3721C27.4584 17.2783 27.5115 17.1514 27.5125 17.0187C27.5575 15.0325 26.94 13.3662 25.7288 12.0312C24.5113 10.6962 22.8125 9.9475 20.6438 9.79875H20.5725ZM21.3938 12.4937C20.71 12.4737 20.6838 13.4962 21.3613 13.5162C23.0088 13.6012 23.8088 14.4337 23.9138 16.1462C23.916 16.2762 23.9691 16.4002 24.0616 16.4915C24.1542 16.5829 24.2788 16.6344 24.4088 16.635H24.4288C24.4956 16.6321 24.5612 16.616 24.6217 16.5875C24.6823 16.559 24.7365 16.5187 24.7813 16.469C24.8261 16.4194 24.8606 16.3612 24.8827 16.2981C24.9048 16.2349 24.9141 16.168 24.91 16.1012C24.7925 13.8687 23.575 12.6112 21.4138 12.495H21.3938V12.4937Z" fill="#0AB8B6"></path> </svg> 